<svg width="16.000000" height="16.000000" viewBox="0 0 16 16" fill="none" xmlns="http://www.w3.org/2000/svg" xmlns:xlink="http://www.w3.org/1999/xlink">
	<desc>
			Created with Pixso.
	</desc>
	<defs>
		<clipPath id="clip1_2155">
			<rect id="Icon-system" width="16.000000" height="16.000000" fill="white" fill-opacity="0"/>
		</clipPath>
	</defs>
	<rect id="Icon-system" width="16.000000" height="16.000000" fill="#FFFFFF" fill-opacity="0"/>
	<g clip-path="url(#clip1_2155)">
		<path id="Vector" d="M8 0C5.04 0 2.66 2.43 2.66 5.41C2.66 6.93 3.51 8.71 4.5 10.08C5 10.77 5.57 11.4 6.15 11.86C6.69 12.29 7.35 12.66 8 12.66C8.64 12.66 9.3 12.29 9.84 11.86C10.42 11.4 10.99 10.77 11.49 10.08C12.49 8.71 13.33 6.93 13.33 5.41C13.33 2.43 10.95 0 8 0ZM6 5.33C6 4.22 6.89 3.33 8 3.33C9.1 3.33 10 4.22 10 5.33C10 6.43 9.1 7.33 8 7.33C6.89 7.33 6 6.43 6 5.33Z" fill="#4B5563" fill-opacity="1.000000" fill-rule="evenodd"/>
		<path id="Vector" d="M9 15C9 15.55 8.55 16 8 16C7.44 16 7 15.55 7 15C7 14.44 7.44 14 8 14C8.55 14 9 14.44 9 15Z" fill="#4B5563" fill-opacity="1.000000" fill-rule="evenodd"/>
	</g>
</svg>
