<svg width="16.000000" height="16.000000" viewBox="0 0 16 16" fill="none" xmlns="http://www.w3.org/2000/svg" xmlns:xlink="http://www.w3.org/1999/xlink">
	<desc>
			Created with Pixso.
	</desc>
	<defs>
		<clipPath id="clip1_2170">
			<rect id="Icon-brand" width="16.000000" height="16.000000" fill="white" fill-opacity="0"/>
		</clipPath>
	</defs>
	<rect id="Icon-brand" width="16.000000" height="16.000000" fill="#FFFFFF" fill-opacity="0"/>
	<g clip-path="url(#clip1_2170)">
		<path id="Vector" d="M14.4 8.14C14.4 7.59 14.36 7.19 14.26 6.78L8 6.78L8 9.25L11.67 9.25C11.6 9.87 11.2 10.79 10.31 11.41L10.3 11.5L12.28 13.03L12.42 13.04C13.68 11.88 14.4 10.17 14.4 8.14Z" fill="#4285F4" fill-opacity="1.000000" fill-rule="nonzero"/>
		<path id="Vector" d="M8 14.66C9.8 14.66 11.31 14.07 12.41 13.05L10.31 11.42C9.75 11.81 8.99 12.08 8 12.08C6.23 12.08 4.74 10.92 4.2 9.31L4.13 9.32L2.07 10.91L2.04 10.99C3.14 13.16 5.39 14.66 8 14.66Z" fill="#34A853" fill-opacity="1.000000" fill-rule="nonzero"/>
		<path id="Vector" d="M4.2 9.31C4.06 8.9 3.98 8.45 3.98 7.99C3.98 7.53 4.06 7.09 4.2 6.68L4.19 6.59L2.11 4.97L2.04 5C1.59 5.91 1.33 6.92 1.33 7.99C1.33 9.07 1.59 10.08 2.04 10.99L4.2 9.31Z" fill="#FBBC05" fill-opacity="1.000000" fill-rule="nonzero"/>
		<path id="Vector" d="M8 3.91C9.25 3.91 10.1 4.45 10.58 4.9L12.46 3.06C11.3 1.99 9.8 1.33 8 1.33C5.39 1.33 3.14 2.82 2.04 5L4.2 6.68C4.74 5.07 6.23 3.91 8 3.91Z" fill="#EB4335" fill-opacity="1.000000" fill-rule="nonzero"/>
	</g>
</svg>
