<svg width="18" height="19" viewBox="0 0 18 19" fill="none" xmlns="http://www.w3.org/2000/svg">
<path fill-rule="evenodd" clip-rule="evenodd" d="M17.7071 2.20711C18.0976 1.81658 18.0976 1.18342 17.7071 0.792893C17.3166 0.402369 16.6834 0.402369 16.2929 0.792893L9 8.08579L1.70711 0.792893C1.31659 0.402369 0.683421 0.402369 0.292897 0.792893C-0.0976277 1.18342 -0.0976277 1.81658 0.292897 2.20711L7.58579 9.5L0.292894 16.7929C-0.0976314 17.1834 -0.0976315 17.8166 0.292894 18.2071C0.683418 18.5976 1.31658 18.5976 1.70711 18.2071L9 10.9142L16.2929 18.2071C16.6834 18.5976 17.3166 18.5976 17.7071 18.2071C18.0976 17.8166 18.0976 17.1834 17.7071 16.7929L10.4142 9.5L17.7071 2.20711Z" fill="black"/>
</svg>
