<svg width="18" height="20" viewBox="0 0 18 20" fill="none" xmlns="http://www.w3.org/2000/svg">
<path fill-rule="evenodd" clip-rule="evenodd" d="M11.7779 9.1652C10.9565 9.714 9.9909 10.0072 9.0031 10.0078H8.9969C7.6719 10.007 6.40142 9.4803 5.46447 8.5433C4.52678 7.60567 4 6.3339 4 5.00781C4 4.01891 4.29324 3.05221 4.84265 2.22996C5.39206 1.40772 6.17295 0.76686 7.0866 0.38842C8.0002 0.00998029 9.0055 -0.0890399 9.9755 0.10389C10.9454 0.29681 11.8363 0.77302 12.5355 1.47228C13.2348 2.17154 13.711 3.06246 13.9039 4.03236C14.0969 5.00227 13.9978 6.0076 13.6194 6.92123C13.241 7.83486 12.6001 8.6158 11.7779 9.1652ZM9 8.0078C9.5933 8.0078 10.1734 7.83187 10.6667 7.50222C11.1601 7.17258 11.5446 6.70404 11.7716 6.15586C11.9987 5.60768 12.0581 5.00449 11.9424 4.42254C11.8266 3.8406 11.5409 3.30605 11.1213 2.88649C10.7018 2.46694 10.1672 2.18121 9.5853 2.06546C9.0033 1.9497 8.4001 2.00911 7.852 2.23618C7.3038 2.46324 6.83524 2.84776 6.50559 3.3411C6.17595 3.83445 6 4.41447 6 5.00781C6 5.80346 6.31607 6.56652 6.87868 7.12913C7.4413 7.69174 8.2044 8.0078 9 8.0078ZM16 17C16 17.2652 15.8946 17.5196 15.7071 17.7071C15.5196 17.8946 15.2652 18 15 18H3C2.73478 18 2.48043 17.8946 2.29289 17.7071C2.10536 17.5196 2 17.2652 2 17C2 16.2044 2.31607 15.4413 2.87868 14.8787C3.44129 14.3161 4.20435 14 5 14H13C13.7956 14 14.5587 14.3161 15.1213 14.8787C15.6839 15.4413 16 16.2044 16 17ZM1.46447 13.4645C2.40215 12.5268 3.67392 12 5 12H13C14.3261 12 15.5979 12.5268 16.5355 13.4645C17.4732 14.4021 18 15.6739 18 17C18 17.7956 17.6839 18.5587 17.1213 19.1213C16.5587 19.6839 15.7956 20 15 20H3C2.20435 20 1.44129 19.6839 0.87868 19.1213C0.31607 18.5587 0 17.7956 0 17C0 15.6739 0.52678 14.4021 1.46447 13.4645Z" fill="#4B5563"/>
</svg>
